<svg width="512" height="512" viewBox="0 0 512 512" fill="none" xmlns="http://www.w3.org/2000/svg">
  <!-- Background circle -->
  <circle cx="256" cy="256" r="256" fill="oklch(0.205 0 0)"/>
  
  <!-- Wallet shape -->
  <path d="M160 160C142.327 160 128 174.327 128 192V320C128 337.673 142.327 352 160 352H352C369.673 352 384 337.673 384 320V224C384 206.327 369.673 192 352 192H168V176C168 167.163 175.163 160 184 160H352C360.837 160 368 152.837 368 144C368 135.163 360.837 128 352 128H184C157.49 128 136 149.49 136 176V192H160Z" fill="white"/>
  
  <!-- Card slot -->
  <rect x="304" y="248" width="48" height="32" rx="8" fill="oklch(0.8 0 0)"/>
  
  <!-- Dollar sign -->
  <path d="M220 200C220 195.582 223.582 192 228 192H232C236.418 192 240 195.582 240 200V204C248.837 204 256 211.163 256 220C256 228.837 248.837 236 240 236H228C225.791 236 224 237.791 224 240C224 242.209 225.791 244 228 244H240C248.837 244 256 251.163 256 260C256 268.837 248.837 276 240 276V280C240 284.418 236.418 288 232 288H228C223.582 288 220 284.418 220 280V276C211.163 276 204 268.837 204 260C204 251.163 211.163 244 220 244H232C234.209 244 236 242.209 236 240C236 237.791 234.209 236 232 236H220C211.163 236 204 228.837 204 220C204 211.163 211.163 204 220 204V200Z" fill="white"/>
</svg>
