<svg width="32" height="32" viewBox="0 0 32 32" fill="none" xmlns="http://www.w3.org/2000/svg">
  <rect width="32" height="32" rx="6" fill="oklch(0.205 0 0)"/>
  <path d="M10 10C8.89543 10 8 10.8954 8 12V20C8 21.1046 8.89543 22 10 22H22C23.1046 22 24 21.1046 24 20V14C24 12.8954 23.1046 12 22 12H10.5V11C10.5 10.4477 10.9477 10 11.5 10H22C22.5523 10 23 9.55228 23 9C23 8.44772 22.5523 8 22 8H11.5C9.567 8 8 9.567 8 11.5V12H10Z" fill="white"/>
  <rect x="19" y="15.5" width="3" height="2" rx="0.5" fill="oklch(0.8 0 0)"/>
  <path d="M13.75 12.5C13.75 12.2239 13.9739 12 14.25 12H14.75C15.0261 12 15.25 12.2239 15.25 12.5V13C15.9404 13 16.5 13.5596 16.5 14.25C16.5 14.9404 15.9404 15.5 15.25 15.5H14.25C14.1119 15.5 14 15.6119 14 15.75C14 15.8881 14.1119 16 14.25 16H15.25C15.9404 16 16.5 16.5596 16.5 17.25C16.5 17.9404 15.9404 18.5 15.25 18.5V19C15.25 19.2761 15.0261 19.5 14.75 19.5H14.25C13.9739 19.5 13.75 19.2761 13.75 19V18.5C13.0596 18.5 12.5 17.9404 12.5 17.25C12.5 16.5596 13.0596 16 13.75 16H14.75C14.8881 16 15 15.8881 15 15.75C15 15.6119 14.8881 15.5 14.75 15.5H13.75C13.0596 15.5 12.5 14.9404 12.5 14.25C12.5 13.5596 13.0596 13 13.75 13V12.5Z" fill="white"/>
</svg>
